<svg width="64" height="64" viewBox="0 0 64 64" fill="none" xmlns="http://www.w3.org/2000/svg">
<g clip-path="url(#clip0_730_1778)">
<path d="M24.5982 47.7942C26.9803 48.9853 29.6801 49.6999 32.5387 49.6999C40.7968 49.6999 47.705 43.9033 49.4519 36.201C45.7993 38.4244 41.6703 40.5683 37.303 42.6329C32.9357 44.6974 28.5684 46.4443 24.5982 47.7942Z" fill="url(#paint0_linear_730_1778)"/>
<path d="M61.5215 18.8115C61.1245 17.938 60.251 16.7469 58.5041 16.1117C57.6307 15.7941 56.5984 15.6353 55.3279 15.5558C55.2485 15.5558 55.1691 15.5558 55.0897 15.5558C53.2634 15.5558 50.8812 15.8735 48.1815 16.5087C46.4346 16.9057 44.5288 17.4616 42.6231 18.0968C42.4643 18.1762 41.1144 17.1439 40.8762 17.0645C40.241 16.6675 39.5263 16.3499 38.8117 16.1117C37.4618 15.5558 36.0325 15.2382 34.5238 15.0794C31.427 14.7618 28.2508 15.2382 25.4716 16.5087C19.6751 19.1291 15.7048 24.6874 15.149 30.881C13.4021 31.9927 11.7346 33.1044 10.3053 34.1366C7.92311 35.8835 6.0968 37.551 4.90572 39.0597C4.11167 40.0126 3.63524 40.8861 3.31762 41.8389C2.68238 43.6652 3 45.0151 3.39703 45.8886C3.79405 46.762 4.66751 47.9531 6.41442 48.5883C7.28787 48.906 8.32014 49.0648 9.59062 49.1442C9.67003 49.1442 9.74943 49.1442 9.82884 49.1442C11.6552 49.1442 14.0373 48.8266 16.7371 48.1913C23.5659 46.6032 30.2359 43.9034 36.6677 40.8861C42.8613 37.9481 48.9755 34.6925 54.5339 30.5634C56.916 28.8165 58.7423 27.149 59.9334 25.6403C60.7275 24.6874 61.2039 23.814 61.5215 22.8611C62.2362 21.1142 61.9185 19.6849 61.5215 18.8115ZM22.613 23.4169C22.9307 23.0199 23.5659 23.0199 23.9629 23.3375C24.36 23.6552 24.36 24.2904 24.0423 24.6874C23.9629 24.8462 21.5014 27.8636 23.2483 33.819C23.4071 34.2954 23.0895 34.8513 22.613 35.0101C22.5336 35.0101 22.4542 35.0101 22.3748 35.0101C21.9778 35.0101 21.5808 34.7719 21.5014 34.3748C19.3574 27.3078 22.4542 23.5758 22.613 23.4169ZM49.5313 29.2135C48.9755 29.6105 48.4991 30.0076 48.1021 30.2458C44.2906 32.8661 40.3204 35.1689 36.1913 37.154C32.8563 38.7421 29.3625 40.1714 25.8687 41.4419C22.4542 42.633 18.9604 43.824 15.3078 43.824C13.1638 43.824 11.814 43.2682 11.3375 42.2359C10.6229 40.6478 11.8934 38.4245 15.3078 35.5659C15.4666 36.36 15.6254 37.154 15.943 37.9481V38.0275C16.4195 39.3774 16.9753 40.5684 17.7693 41.7595C20.7867 41.2831 25.8686 39.8538 34.0474 36.0423C40.5586 33.025 45.6405 30.0076 48.7373 27.3872C48.8167 27.3078 48.8167 27.3078 48.8961 27.2284C48.7373 26.6726 48.5785 26.1961 48.3403 25.7197V25.6403C47.7844 23.9728 46.911 22.5435 45.8787 21.3524C47.308 21.1142 48.4991 20.9554 49.6108 20.9554C51.7547 20.9554 53.1046 21.5112 53.581 22.5435C54.6133 24.8462 51.7547 27.546 49.5313 29.2135Z" fill="url(#paint1_linear_730_1778)"/>
</g>
<defs>
<linearGradient id="paint0_linear_730_1778" x1="37.0251" y1="36.201" x2="37.0251" y2="49.6999" gradientUnits="userSpaceOnUse">
<stop stop-color="#FFACB7"/>
<stop offset="0.276042" stop-color="#FF9EEC"/>
<stop offset="0.5625" stop-color="#B5C8FF"/>
<stop offset="0.78125" stop-color="#D6FFD3"/>
<stop offset="1" stop-color="#FFD58C"/>
</linearGradient>
<linearGradient id="paint1_linear_730_1778" x1="32.4516" y1="14.9841" x2="32.4516" y2="49.1442" gradientUnits="userSpaceOnUse">
<stop stop-color="#FFACB7"/>
<stop offset="0.276042" stop-color="#FF9EEC"/>
<stop offset="0.5625" stop-color="#B5C8FF"/>
<stop offset="0.78125" stop-color="#D6FFD3"/>
<stop offset="1" stop-color="#FFD58C"/>
</linearGradient>
<clipPath id="clip0_730_1778">
<rect width="58.9979" height="34.7" fill="white" transform="translate(3 15)"/>
</clipPath>
</defs>
</svg>
