<svg width="60" height="60" viewBox="0 0 60 60" fill="none" xmlns="http://www.w3.org/2000/svg">
<g clip-path="url(#clip0_733_1749)">
<path d="M23.0608 35.4112C25.294 36.5278 27.8251 37.1978 30.505 37.1978C38.247 37.1978 44.7235 31.7635 46.3612 24.5426C42.9369 26.627 39.0659 28.6369 34.9715 30.5724C30.8772 32.5079 26.7829 34.1456 23.0608 35.4112Z" fill="url(#paint0_linear_733_1749)"/>
<path d="M57.6764 8.23985C57.3042 7.42098 56.4853 6.30435 54.8476 5.70881C54.0288 5.41104 53.061 5.26216 51.8699 5.18772C51.7955 5.18772 51.721 5.18772 51.6466 5.18772C49.9344 5.18772 47.7012 5.48549 45.1701 6.08102C43.5324 6.45323 41.7458 6.97433 39.9592 7.56987C39.8103 7.64431 38.5448 6.67656 38.3214 6.60212C37.7259 6.22991 37.0559 5.93214 36.3859 5.70881C35.1204 5.18772 33.7805 4.88995 32.3661 4.74106C29.4628 4.4433 26.4851 4.88995 23.8796 6.08102C18.4454 8.53762 14.7233 13.7486 14.2022 19.5551C12.5644 20.5973 11.0011 21.6394 9.66119 22.6072C7.42792 24.2449 5.71575 25.8082 4.59912 27.2226C3.85469 28.1159 3.40804 28.9348 3.11027 29.8281C2.51473 31.5403 2.8125 32.8058 3.18471 33.6246C3.55692 34.4435 4.37579 35.5601 6.01352 36.1557C6.83238 36.4534 7.80013 36.6023 8.99121 36.6768C9.06565 36.6768 9.14009 36.6768 9.21453 36.6768C10.9267 36.6768 13.16 36.379 15.691 35.7835C22.093 34.2946 28.3462 31.7636 34.376 28.9348C40.1825 26.1804 45.9146 23.1283 51.1255 19.2573C53.3588 17.6196 55.0709 16.0563 56.1876 14.6419C56.932 13.7486 57.3786 12.9297 57.6764 12.0364C58.3464 10.3987 58.0486 9.05871 57.6764 8.23985ZM21.1997 12.5575C21.4975 12.1853 22.093 12.1853 22.4652 12.4831C22.8375 12.7808 22.8375 13.3764 22.5397 13.7486C22.4652 13.8975 20.1575 16.7263 21.7953 22.3094C21.9442 22.7561 21.6464 23.2772 21.1997 23.4261C21.1253 23.4261 21.0508 23.4261 20.9764 23.4261C20.6042 23.4261 20.232 23.2027 20.1575 22.8305C18.1476 16.2052 21.0508 12.7064 21.1997 12.5575ZM46.4356 17.9918C45.9145 18.364 45.4679 18.7362 45.0957 18.9595C41.5225 21.4161 37.8003 23.5749 33.9293 25.436C30.8028 26.9248 27.5273 28.2648 24.2519 29.4559C21.0508 30.5725 17.7754 31.6891 14.351 31.6891C12.3411 31.6891 11.0756 31.168 10.6289 30.2003C9.95896 28.7115 11.15 26.6271 14.351 23.9472C14.4999 24.6916 14.6488 25.436 14.9466 26.1804V26.2549C15.3932 27.5204 15.9143 28.637 16.6588 29.7536C19.4876 29.307 24.2519 27.967 31.9194 24.3938C38.0237 21.565 42.788 18.7362 45.6912 16.2796C45.7657 16.2052 45.7657 16.2052 45.8401 16.1307C45.6912 15.6096 45.5423 15.163 45.319 14.7163V14.6419C44.7979 13.0786 43.979 11.7386 43.0113 10.622C44.3513 10.3987 45.4679 10.2498 46.5101 10.2498C48.52 10.2498 49.7855 10.7709 50.2322 11.7386C51.1999 13.8975 48.52 16.4285 46.4356 17.9918Z" fill="url(#paint1_linear_733_1749)"/>
</g>
<path d="M0.824 49.0987H1.88V53.7387H4.224V54.6667H0.824V49.0987ZM7.20063 54.7627C6.77929 54.7627 6.40863 54.6747 6.08863 54.4987C5.76863 54.3174 5.52063 54.0614 5.34463 53.7307C5.17396 53.4001 5.08863 53.0161 5.08863 52.5787C5.08863 52.1414 5.17396 51.7574 5.34463 51.4267C5.52063 51.0961 5.76863 50.8427 6.08863 50.6667C6.40863 50.4854 6.77929 50.3947 7.20063 50.3947C7.62196 50.3947 7.99263 50.4854 8.31263 50.6667C8.63263 50.8427 8.87796 51.0961 9.04862 51.4267C9.22463 51.7574 9.31263 52.1414 9.31263 52.5787C9.31263 53.0161 9.22463 53.4001 9.04862 53.7307C8.87796 54.0614 8.63263 54.3174 8.31263 54.4987C7.99263 54.6747 7.62196 54.7627 7.20063 54.7627ZM7.20063 53.8907C7.51529 53.8907 7.76063 53.7787 7.93663 53.5547C8.11263 53.3254 8.20063 53.0001 8.20063 52.5787C8.20063 52.1521 8.11263 51.8267 7.93663 51.6027C7.76063 51.3787 7.51529 51.2667 7.20063 51.2667C6.88596 51.2667 6.64063 51.3787 6.46463 51.6027C6.28863 51.8267 6.20063 52.1521 6.20063 52.5787C6.20063 53.0001 6.28863 53.3254 6.46463 53.5547C6.64063 53.7787 6.88596 53.8907 7.20063 53.8907ZM12.3978 52.0827V52.9307H10.3178V52.0827H12.3978ZM14.8409 50.0267V51.5067H16.9129V52.3867H14.8409V54.6667H13.7849V49.0987H17.4409V50.0267H14.8409ZM18.8778 49.8667C18.6965 49.8667 18.5418 49.8054 18.4138 49.6827C18.2858 49.5601 18.2218 49.4001 18.2218 49.2027C18.2218 49.0054 18.2858 48.8454 18.4138 48.7227C18.5418 48.6001 18.6965 48.5387 18.8778 48.5387C19.0591 48.5387 19.2138 48.6001 19.3418 48.7227C19.4698 48.8454 19.5338 49.0054 19.5338 49.2027C19.5338 49.4001 19.4698 49.5601 19.3418 49.6827C19.2138 49.8054 19.0591 49.8667 18.8778 49.8667ZM19.4058 50.4907V54.6667H18.3498V50.4987L19.4058 50.4907ZM25.3622 54.7627C24.6209 54.7627 24.0395 54.5494 23.6182 54.1227C23.1969 53.6961 22.9862 53.1094 22.9862 52.3627V49.0987H24.0422V52.3387C24.0422 52.8507 24.1569 53.2294 24.3862 53.4747C24.6155 53.7147 24.9409 53.8347 25.3622 53.8347C25.7889 53.8347 26.1142 53.7121 26.3382 53.4667C26.5675 53.2161 26.6822 52.8401 26.6822 52.3387V49.0987H27.7382V52.3627C27.7382 53.1094 27.5275 53.6961 27.1062 54.1227C26.6849 54.5494 26.1035 54.7627 25.3622 54.7627ZM31.4844 50.3947C31.9057 50.3947 32.2444 50.5201 32.5004 50.7707C32.7617 51.0161 32.8924 51.3414 32.8924 51.7467V54.6667H31.8364V52.3467C31.8364 51.9841 31.7804 51.7254 31.6684 51.5707C31.5617 51.4107 31.383 51.3307 31.1324 51.3307C30.855 51.3307 30.5617 51.4854 30.2524 51.7947V54.6667H29.1964V51.4187L29.0204 50.4907H29.9884L30.1404 51.0267C30.3697 50.8027 30.591 50.6427 30.8044 50.5467C31.0177 50.4454 31.2444 50.3947 31.4844 50.3947ZM34.7216 49.8667C34.5402 49.8667 34.3856 49.8054 34.2576 49.6827C34.1296 49.5601 34.0656 49.4001 34.0656 49.2027C34.0656 49.0054 34.1296 48.8454 34.2576 48.7227C34.3856 48.6001 34.5402 48.5387 34.7216 48.5387C34.9029 48.5387 35.0576 48.6001 35.1856 48.7227C35.3136 48.8454 35.3776 49.0054 35.3776 49.2027C35.3776 49.4001 35.3136 49.5601 35.1856 49.6827C35.0576 49.8054 34.9029 49.8667 34.7216 49.8667ZM35.2496 50.4907V54.6667H34.1936V50.4987L35.2496 50.4907ZM40.2838 50.4907L38.7398 54.6667H37.4278L35.8838 50.4907H36.9558L38.0998 53.7867L39.2438 50.4907H40.2838ZM44.5641 52.8987H41.6601C41.7027 53.2187 41.8201 53.4641 42.0121 53.6347C42.2094 53.8054 42.4707 53.8907 42.7961 53.8907C43.0361 53.8907 43.2947 53.8481 43.5721 53.7627C43.8547 53.6721 44.1161 53.5494 44.3561 53.3947H44.3881V54.2507C44.1747 54.4161 43.9294 54.5441 43.6521 54.6347C43.3801 54.7201 43.0921 54.7627 42.7881 54.7627C42.3507 54.7627 41.9694 54.6747 41.6441 54.4987C41.3187 54.3227 41.0681 54.0694 40.8921 53.7387C40.7161 53.4081 40.6281 53.0214 40.6281 52.5787C40.6281 52.1467 40.7107 51.7654 40.8761 51.4347C41.0467 51.1041 41.2841 50.8481 41.5881 50.6667C41.8921 50.4854 42.2441 50.3947 42.6441 50.3947C43.0334 50.3947 43.3721 50.4827 43.6601 50.6587C43.9534 50.8347 44.1774 51.0881 44.3321 51.4187C44.4867 51.7494 44.5641 52.1361 44.5641 52.5787V52.8987ZM42.6441 51.2427C42.3934 51.2427 42.1827 51.3254 42.0121 51.4907C41.8467 51.6561 41.7347 51.8854 41.6761 52.1787H43.4761C43.4334 51.8747 43.3427 51.6427 43.2041 51.4827C43.0654 51.3227 42.8787 51.2427 42.6441 51.2427ZM47.8969 50.3947V51.4347H47.7609C47.3449 51.4347 47.0063 51.5494 46.7449 51.7787V54.6667H45.6889V51.4187L45.5129 50.4907H46.5689L46.6729 51.0427C46.8489 50.8027 47.0089 50.6347 47.1529 50.5387C47.2969 50.4427 47.4569 50.3947 47.6329 50.3947H47.8969ZM50.2483 54.7627C49.971 54.7627 49.699 54.7254 49.4323 54.6507C49.1656 54.5707 48.915 54.4587 48.6803 54.3147V53.3147C48.9363 53.5067 49.179 53.6481 49.4083 53.7387C49.6376 53.8294 49.8856 53.8747 50.1523 53.8747C50.4243 53.8747 50.6243 53.8401 50.7523 53.7707C50.8856 53.7014 50.9523 53.5947 50.9523 53.4507C50.9523 53.3121 50.8883 53.2107 50.7603 53.1467C50.6376 53.0774 50.4403 53.0107 50.1683 52.9467C49.8696 52.8721 49.627 52.7974 49.4403 52.7227C49.2536 52.6427 49.091 52.5147 48.9523 52.3387C48.819 52.1627 48.7523 51.9254 48.7523 51.6267C48.7523 51.2534 48.9043 50.9547 49.2083 50.7307C49.5176 50.5067 49.931 50.3947 50.4483 50.3947C50.699 50.3947 50.931 50.4241 51.1443 50.4827C51.3576 50.5361 51.5763 50.6267 51.8003 50.7547V51.7307C51.571 51.5707 51.3576 51.4561 51.1603 51.3867C50.963 51.3174 50.7523 51.2827 50.5283 51.2827C50.283 51.2827 50.0936 51.3147 49.9603 51.3787C49.827 51.4374 49.7603 51.5254 49.7603 51.6427C49.7603 51.7601 49.8163 51.8481 49.9283 51.9067C50.0456 51.9601 50.2296 52.0161 50.4803 52.0747C50.779 52.1387 51.027 52.2134 51.2243 52.2987C51.427 52.3787 51.6003 52.5121 51.7443 52.6987C51.8883 52.8801 51.9603 53.1334 51.9603 53.4587C51.9603 53.7094 51.8883 53.9361 51.7443 54.1387C51.6003 54.3361 51.3976 54.4907 51.1363 54.6027C50.875 54.7094 50.579 54.7627 50.2483 54.7627ZM56.7203 52.8987H53.8163C53.859 53.2187 53.9763 53.4641 54.1683 53.6347C54.3656 53.8054 54.627 53.8907 54.9523 53.8907C55.1923 53.8907 55.451 53.8481 55.7283 53.7627C56.011 53.6721 56.2723 53.5494 56.5123 53.3947H56.5443V54.2507C56.331 54.4161 56.0856 54.5441 55.8083 54.6347C55.5363 54.7201 55.2483 54.7627 54.9443 54.7627C54.507 54.7627 54.1256 54.6747 53.8003 54.4987C53.475 54.3227 53.2243 54.0694 53.0483 53.7387C52.8723 53.4081 52.7843 53.0214 52.7843 52.5787C52.7843 52.1467 52.867 51.7654 53.0323 51.4347C53.203 51.1041 53.4403 50.8481 53.7443 50.6667C54.0483 50.4854 54.4003 50.3947 54.8003 50.3947C55.1896 50.3947 55.5283 50.4827 55.8163 50.6587C56.1096 50.8347 56.3336 51.0881 56.4883 51.4187C56.643 51.7494 56.7203 52.1361 56.7203 52.5787V52.8987ZM54.8003 51.2427C54.5496 51.2427 54.339 51.3254 54.1683 51.4907C54.003 51.6561 53.891 51.8854 53.8323 52.1787H55.6323C55.5896 51.8747 55.499 51.6427 55.3603 51.4827C55.2216 51.3227 55.035 51.2427 54.8003 51.2427Z" fill="white"/>
<defs>
<linearGradient id="paint0_linear_733_1749" x1="34.711" y1="24.5426" x2="34.711" y2="37.1978" gradientUnits="userSpaceOnUse">
<stop stop-color="#FFACB7"/>
<stop offset="0.276042" stop-color="#FF9EEC"/>
<stop offset="0.5625" stop-color="#B5C8FF"/>
<stop offset="0.78125" stop-color="#D6FFD3"/>
<stop offset="1" stop-color="#FFD58C"/>
</linearGradient>
<linearGradient id="paint1_linear_733_1749" x1="30.4234" y1="4.65173" x2="30.4234" y2="36.6768" gradientUnits="userSpaceOnUse">
<stop stop-color="#FFACB7"/>
<stop offset="0.276042" stop-color="#FF9EEC"/>
<stop offset="0.5625" stop-color="#B5C8FF"/>
<stop offset="0.78125" stop-color="#D6FFD3"/>
<stop offset="1" stop-color="#FFD58C"/>
</linearGradient>
<clipPath id="clip0_733_1749">
<rect width="55.3106" height="32.5312" fill="white" transform="translate(2.8125 4.66675)"/>
</clipPath>
</defs>
</svg>
