<svg width="36" height="36" viewBox="0 0 36 36" fill="none" xmlns="http://www.w3.org/2000/svg">
<g clip-path="url(#clip0_733_1749)">
<g clip-path="url(#clip1_733_1749)">
<path d="M13.8365 21.2467C15.1764 21.9167 16.6951 22.3187 18.303 22.3187C22.9482 22.3187 26.8341 19.0581 27.8167 14.7256C25.7621 15.9762 23.4395 17.1822 20.9829 18.3435C18.5263 19.5048 16.0697 20.4874 13.8365 21.2467Z" fill="url(#paint0_linear_733_1749)"/>
<path d="M34.6058 4.94388C34.3825 4.45257 33.8912 3.78259 32.9086 3.42526C32.4173 3.2466 31.8366 3.15727 31.122 3.11261C31.0773 3.11261 31.0326 3.11261 30.988 3.11261C29.9607 3.11261 28.6207 3.29127 27.1021 3.64859C26.1194 3.87192 25.0475 4.18457 23.9755 4.5419C23.8862 4.58656 23.1269 4.00591 22.9929 3.96125C22.6355 3.73792 22.2336 3.55926 21.8316 3.42526C21.0723 3.11261 20.2683 2.93394 19.4196 2.84461C17.6777 2.66595 15.8911 2.93394 14.3278 3.64859C11.0672 5.12255 8.83395 8.24912 8.5213 11.733C7.53866 12.3583 6.60069 12.9836 5.79671 13.5643C4.45675 14.5469 3.42945 15.4849 2.75947 16.3335C2.31282 16.8695 2.04482 17.3608 1.86616 17.8968C1.50884 18.9241 1.6875 19.6834 1.91083 20.1748C2.13415 20.6661 2.62547 21.3361 3.60811 21.6934C4.09943 21.872 4.68008 21.9614 5.39472 22.006C5.43939 22.006 5.48405 22.006 5.52872 22.006C6.55602 22.006 7.89598 21.8274 9.4146 21.4701C13.2558 20.5768 17.0077 19.0581 20.6256 17.3608C24.1095 15.7082 27.5487 13.877 30.6753 11.5544C32.0153 10.5717 33.0426 9.63374 33.7125 8.7851C34.1592 8.24912 34.4272 7.7578 34.6058 7.22182C35.0078 6.23918 34.8292 5.4352 34.6058 4.94388ZM12.7198 7.53447C12.8985 7.31115 13.2558 7.31115 13.4791 7.48981C13.7025 7.66847 13.7025 8.02579 13.5238 8.24912C13.4791 8.33845 12.0945 10.0357 13.0772 13.3856C13.1665 13.6536 12.9878 13.9663 12.7198 14.0556C12.6752 14.0556 12.6305 14.0556 12.5858 14.0556C12.3625 14.0556 12.1392 13.9216 12.0945 13.6983C10.8886 9.72308 12.6305 7.6238 12.7198 7.53447ZM27.8614 10.795C27.5487 11.0184 27.2807 11.2417 27.0574 11.3757C24.9135 12.8496 22.6802 14.1449 20.3576 15.2616C18.4817 16.1549 16.5164 16.9589 14.5511 17.6735C12.6305 18.3435 10.6652 19.0135 8.61063 19.0135C7.40466 19.0135 6.64535 18.7008 6.37736 18.1202C5.97537 17.2269 6.69002 15.9762 8.61063 14.3683C8.69996 14.8149 8.78929 15.2616 8.96795 15.7082V15.7529C9.23594 16.5122 9.5486 17.1822 9.99525 17.8522C11.6925 17.5842 14.5511 16.7802 19.1516 14.6363C22.8142 12.939 25.6728 11.2417 27.4147 9.76774C27.4594 9.72308 27.4594 9.72307 27.5041 9.67841C27.4147 9.36575 27.3254 9.09776 27.1914 8.82977V8.7851C26.8787 7.84713 26.3874 7.04316 25.8068 6.37318C26.6108 6.23918 27.2807 6.14985 27.9061 6.14985C29.112 6.14985 29.8713 6.46251 30.1393 7.04316C30.72 8.33845 29.112 9.85707 27.8614 10.795Z" fill="url(#paint1_linear_733_1749)"/>
</g>
<path d="M0.4944 28.6592H1.128V31.4432H2.5344V32H0.4944V28.6592ZM4.32038 32.0576C4.06758 32.0576 3.84518 32.0048 3.65318 31.8992C3.46118 31.7904 3.31238 31.6368 3.20678 31.4384C3.10438 31.24 3.05318 31.0096 3.05318 30.7472C3.05318 30.4848 3.10438 30.2544 3.20678 30.056C3.31238 29.8576 3.46118 29.7056 3.65318 29.6C3.84518 29.4912 4.06758 29.4368 4.32038 29.4368C4.57318 29.4368 4.79558 29.4912 4.98758 29.6C5.17958 29.7056 5.32678 29.8576 5.42918 30.056C5.53478 30.2544 5.58758 30.4848 5.58758 30.7472C5.58758 31.0096 5.53478 31.24 5.42918 31.4384C5.32678 31.6368 5.17958 31.7904 4.98758 31.8992C4.79558 32.0048 4.57318 32.0576 4.32038 32.0576ZM4.32038 31.5344C4.50918 31.5344 4.65638 31.4672 4.76198 31.3328C4.86758 31.1952 4.92038 31 4.92038 30.7472C4.92038 30.4912 4.86758 30.296 4.76198 30.1616C4.65638 30.0272 4.50918 29.96 4.32038 29.96C4.13158 29.96 3.98438 30.0272 3.87878 30.1616C3.77318 30.296 3.72038 30.4912 3.72038 30.7472C3.72038 31 3.77318 31.1952 3.87878 31.3328C3.98438 31.4672 4.13158 31.5344 4.32038 31.5344ZM7.43869 30.4496V30.9584H6.19069V30.4496H7.43869ZM8.90456 29.216V30.104H10.1478V30.632H8.90456V32H8.27096V28.6592H10.4646V29.216H8.90456ZM11.3267 29.12C11.2179 29.12 11.1251 29.0832 11.0483 29.0096C10.9715 28.936 10.9331 28.84 10.9331 28.7216C10.9331 28.6032 10.9715 28.5072 11.0483 28.4336C11.1251 28.36 11.2179 28.3232 11.3267 28.3232C11.4355 28.3232 11.5283 28.36 11.6051 28.4336C11.6819 28.5072 11.7203 28.6032 11.7203 28.7216C11.7203 28.84 11.6819 28.936 11.6051 29.0096C11.5283 29.0832 11.4355 29.12 11.3267 29.12ZM11.6435 29.4944V32H11.0099V29.4992L11.6435 29.4944ZM15.2173 32.0576C14.7725 32.0576 14.4237 31.9296 14.1709 31.6736C13.9181 31.4176 13.7917 31.0656 13.7917 30.6176V28.6592H14.4253V30.6032C14.4253 30.9104 14.4941 31.1376 14.6317 31.2848C14.7693 31.4288 14.9645 31.5008 15.2173 31.5008C15.4733 31.5008 15.6685 31.4272 15.8029 31.28C15.9405 31.1296 16.0093 30.904 16.0093 30.6032V28.6592H16.6429V30.6176C16.6429 31.0656 16.5165 31.4176 16.2637 31.6736C16.0109 31.9296 15.6621 32.0576 15.2173 32.0576ZM18.8906 29.4368C19.1434 29.4368 19.3466 29.512 19.5002 29.6624C19.657 29.8096 19.7354 30.0048 19.7354 30.248V32H19.1018V30.608C19.1018 30.3904 19.0682 30.2352 19.001 30.1424C18.937 30.0464 18.8298 29.9984 18.6794 29.9984C18.513 29.9984 18.337 30.0912 18.1514 30.2768V32H17.5178V30.0512L17.4122 29.4944H17.993L18.0842 29.816C18.2218 29.6816 18.3546 29.5856 18.4826 29.528C18.6106 29.4672 18.7466 29.4368 18.8906 29.4368ZM20.8329 29.12C20.7241 29.12 20.6313 29.0832 20.5545 29.0096C20.4777 28.936 20.4393 28.84 20.4393 28.7216C20.4393 28.6032 20.4777 28.5072 20.5545 28.4336C20.6313 28.36 20.7241 28.3232 20.8329 28.3232C20.9417 28.3232 21.0345 28.36 21.1113 28.4336C21.1881 28.5072 21.2265 28.6032 21.2265 28.7216C21.2265 28.84 21.1881 28.936 21.1113 29.0096C21.0345 29.0832 20.9417 29.12 20.8329 29.12ZM21.1497 29.4944V32H20.5161V29.4992L21.1497 29.4944ZM24.1703 29.4944L23.2439 32H22.4567L21.5303 29.4944H22.1735L22.8599 31.472L23.5463 29.4944H24.1703ZM26.7384 30.9392H24.996C25.0216 31.1312 25.092 31.2784 25.2072 31.3808C25.3256 31.4832 25.4824 31.5344 25.6776 31.5344C25.8216 31.5344 25.9768 31.5088 26.1432 31.4576C26.3128 31.4032 26.4696 31.3296 26.6136 31.2368H26.6328V31.7504C26.5048 31.8496 26.3576 31.9264 26.1912 31.9808C26.028 32.032 25.8552 32.0576 25.6728 32.0576C25.4104 32.0576 25.1816 32.0048 24.9864 31.8992C24.7912 31.7936 24.6408 31.6416 24.5352 31.4432C24.4296 31.2448 24.3768 31.0128 24.3768 30.7472C24.3768 30.488 24.4264 30.2592 24.5256 30.0608C24.628 29.8624 24.7704 29.7088 24.9528 29.6C25.1352 29.4912 25.3464 29.4368 25.5864 29.4368C25.82 29.4368 26.0232 29.4896 26.196 29.5952C26.372 29.7008 26.5064 29.8528 26.5992 30.0512C26.692 30.2496 26.7384 30.4816 26.7384 30.7472V30.9392ZM25.5864 29.9456C25.436 29.9456 25.3096 29.9952 25.2072 30.0944C25.108 30.1936 25.0408 30.3312 25.0056 30.5072H26.0856C26.06 30.3248 26.0056 30.1856 25.9224 30.0896C25.8392 29.9936 25.7272 29.9456 25.5864 29.9456ZM28.7382 29.4368V30.0608H28.6566C28.407 30.0608 28.2038 30.1296 28.047 30.2672V32H27.4134V30.0512L27.3078 29.4944H27.9414L28.0038 29.8256C28.1094 29.6816 28.2054 29.5808 28.2918 29.5232C28.3782 29.4656 28.4742 29.4368 28.5798 29.4368H28.7382ZM30.149 32.0576C29.9826 32.0576 29.8194 32.0352 29.6594 31.9904C29.4994 31.9424 29.349 31.8752 29.2082 31.7888V31.1888C29.3618 31.304 29.5074 31.3888 29.645 31.4432C29.7826 31.4976 29.9314 31.5248 30.0914 31.5248C30.2546 31.5248 30.3746 31.504 30.4514 31.4624C30.5314 31.4208 30.5714 31.3568 30.5714 31.2704C30.5714 31.1872 30.533 31.1264 30.4562 31.088C30.3826 31.0464 30.2642 31.0064 30.101 30.968C29.9218 30.9232 29.7762 30.8784 29.6642 30.8336C29.5522 30.7856 29.4546 30.7088 29.3714 30.6032C29.2914 30.4976 29.2514 30.3552 29.2514 30.176C29.2514 29.952 29.3426 29.7728 29.525 29.6384C29.7106 29.504 29.9586 29.4368 30.269 29.4368C30.4194 29.4368 30.5586 29.4544 30.6866 29.4896C30.8146 29.5216 30.9458 29.576 31.0802 29.6528V30.2384C30.9426 30.1424 30.8146 30.0736 30.6962 30.032C30.5778 29.9904 30.4514 29.9696 30.317 29.9696C30.1698 29.9696 30.0562 29.9888 29.9762 30.0272C29.8962 30.0624 29.8562 30.1152 29.8562 30.1856C29.8562 30.256 29.8898 30.3088 29.957 30.344C30.0274 30.376 30.1378 30.4096 30.2882 30.4448C30.4674 30.4832 30.6162 30.528 30.7346 30.5792C30.8562 30.6272 30.9602 30.7072 31.0466 30.8192C31.133 30.928 31.1762 31.08 31.1762 31.2752C31.1762 31.4256 31.133 31.5616 31.0466 31.6832C30.9602 31.8016 30.8386 31.8944 30.6818 31.9616C30.525 32.0256 30.3474 32.0576 30.149 32.0576ZM34.0322 30.9392H32.2898C32.3154 31.1312 32.3858 31.2784 32.501 31.3808C32.6194 31.4832 32.7762 31.5344 32.9714 31.5344C33.1154 31.5344 33.2706 31.5088 33.437 31.4576C33.6066 31.4032 33.7634 31.3296 33.9074 31.2368H33.9266V31.7504C33.7986 31.8496 33.6514 31.9264 33.485 31.9808C33.3218 32.032 33.149 32.0576 32.9666 32.0576C32.7042 32.0576 32.4754 32.0048 32.2802 31.8992C32.085 31.7936 31.9346 31.6416 31.829 31.4432C31.7234 31.2448 31.6706 31.0128 31.6706 30.7472C31.6706 30.488 31.7202 30.2592 31.8194 30.0608C31.9218 29.8624 32.0642 29.7088 32.2466 29.6C32.429 29.4912 32.6402 29.4368 32.8802 29.4368C33.1138 29.4368 33.317 29.4896 33.4898 29.5952C33.6658 29.7008 33.8002 29.8528 33.893 30.0512C33.9858 30.2496 34.0322 30.4816 34.0322 30.7472V30.9392ZM32.8802 29.9456C32.7298 29.9456 32.6034 29.9952 32.501 30.0944C32.4018 30.1936 32.3346 30.3312 32.2994 30.5072H33.3794C33.3538 30.3248 33.2994 30.1856 33.2162 30.0896C33.133 29.9936 33.021 29.9456 32.8802 29.9456Z" fill="white"/>
</g>
<defs>
<linearGradient id="paint0_linear_733_1749" x1="20.8266" y1="14.7256" x2="20.8266" y2="22.3187" gradientUnits="userSpaceOnUse">
<stop stop-color="#FFACB7"/>
<stop offset="0.276042" stop-color="#FF9EEC"/>
<stop offset="0.5625" stop-color="#B5C8FF"/>
<stop offset="0.78125" stop-color="#D6FFD3"/>
<stop offset="1" stop-color="#FFD58C"/>
</linearGradient>
<linearGradient id="paint1_linear_733_1749" x1="18.254" y1="2.79102" x2="18.254" y2="22.006" gradientUnits="userSpaceOnUse">
<stop stop-color="#FFACB7"/>
<stop offset="0.276042" stop-color="#FF9EEC"/>
<stop offset="0.5625" stop-color="#B5C8FF"/>
<stop offset="0.78125" stop-color="#D6FFD3"/>
<stop offset="1" stop-color="#FFD58C"/>
</linearGradient>
<clipPath id="clip0_733_1749">
<rect width="36" height="36" fill="white"/>
</clipPath>
<clipPath id="clip1_733_1749">
<rect width="33.1863" height="19.5187" fill="white" transform="translate(1.6875 2.80005)"/>
</clipPath>
</defs>
</svg>
