<svg width="90" height="90" viewBox="0 0 90 90" fill="none" xmlns="http://www.w3.org/2000/svg">
<g clip-path="url(#clip0_730_1778)">
<path d="M34.5912 53.1168C37.9411 54.7918 41.7376 55.7967 45.7575 55.7967C57.3705 55.7967 67.0852 47.6453 69.5418 36.814C64.4053 39.9405 58.5988 42.9554 52.4573 45.8587C46.3158 48.7619 40.1744 51.2185 34.5912 53.1168Z" fill="url(#paint0_linear_730_1778)"/>
<path d="M86.5146 12.3598C85.9563 11.1315 84.728 9.45659 82.2714 8.56328C81.0431 8.11663 79.5915 7.8933 77.8049 7.78164C77.6932 7.78164 77.5816 7.78164 77.4699 7.78164C74.9016 7.78164 71.5517 8.22829 67.7552 9.1216C65.2986 9.67991 62.6187 10.4616 59.9388 11.3549C59.7154 11.4665 57.8172 10.0149 57.4822 9.90324C56.5889 9.34492 55.5839 8.89827 54.5789 8.56328C52.6806 7.78164 50.6707 7.33498 48.5491 7.11166C44.1942 6.665 39.7277 7.33498 35.8195 9.1216C27.6681 12.8065 22.0849 20.6229 21.3032 29.3327C18.8467 30.8959 16.5017 32.4592 14.4918 33.9109C11.1419 36.3675 8.57363 38.7124 6.89868 40.834C5.78205 42.1739 5.11207 43.4022 4.66541 44.7422C3.77211 47.3105 4.21876 49.2087 4.77708 50.437C5.33539 51.6653 6.56369 53.3403 9.02028 54.2336C10.2486 54.6802 11.7002 54.9036 13.4868 55.0152C13.5985 55.0152 13.7101 55.0152 13.8218 55.0152C16.3901 55.0152 19.74 54.5686 23.5365 53.6753C33.1396 51.442 42.5193 47.6454 51.564 43.4022C60.2738 39.2707 68.8718 34.6925 76.6883 28.886C80.0382 26.4294 82.6064 24.0845 84.2814 21.9629C85.398 20.6229 86.068 19.3946 86.5146 18.0547C87.5196 15.5981 87.0729 13.5881 86.5146 12.3598ZM31.7996 18.8363C32.2463 18.278 33.1396 18.278 33.6979 18.7246C34.2562 19.1713 34.2562 20.0646 33.8095 20.6229C33.6979 20.8462 30.2363 25.0895 32.6929 33.4642C32.9162 34.1342 32.4696 34.9158 31.7996 35.1392C31.6879 35.1392 31.5763 35.1392 31.4646 35.1392C30.9063 35.1392 30.348 34.8042 30.2363 34.2458C27.2214 24.3078 31.5763 19.0596 31.7996 18.8363ZM69.6535 26.9877C68.8718 27.546 68.2018 28.1044 67.6435 28.4394C62.2837 32.1242 56.7005 35.3625 50.894 38.1541C46.2042 40.3873 41.291 42.3973 36.3778 44.1839C31.5763 45.8588 26.6631 47.5338 21.5266 47.5338C18.5117 47.5338 16.6134 46.7521 15.9434 45.3005C14.9384 43.0672 16.7251 39.9407 21.5266 35.9208C21.7499 37.0374 21.9732 38.1541 22.4199 39.2707V39.3824C23.0899 41.2806 23.8715 42.9556 24.9881 44.6305C29.2313 43.9606 36.3778 41.9506 47.8791 36.5908C57.0355 32.3476 64.182 28.1044 68.5368 24.4195C68.6485 24.3078 68.6485 24.3078 68.7602 24.1961C68.5368 23.4145 68.3135 22.7445 67.9785 22.0745V21.9629C67.1969 19.618 65.9686 17.608 64.517 15.9331C66.5269 15.5981 68.2018 15.3747 69.7651 15.3747C72.78 15.3747 74.6783 16.1564 75.3483 17.608C76.7999 20.8462 72.78 24.6428 69.6535 26.9877Z" fill="url(#paint1_linear_730_1778)"/>
</g>
<path d="M1.236 72.648H2.82V79.608H6.336V81H1.236V72.648ZM10.8009 81.144C10.1689 81.144 9.61294 81.012 9.13294 80.748C8.65294 80.476 8.28094 80.092 8.01694 79.596C7.76094 79.1 7.63294 78.524 7.63294 77.868C7.63294 77.212 7.76094 76.636 8.01694 76.14C8.28094 75.644 8.65294 75.264 9.13294 75C9.61294 74.728 10.1689 74.592 10.8009 74.592C11.4329 74.592 11.9889 74.728 12.4689 75C12.9489 75.264 13.3169 75.644 13.5729 76.14C13.8369 76.636 13.9689 77.212 13.9689 77.868C13.9689 78.524 13.8369 79.1 13.5729 79.596C13.3169 80.092 12.9489 80.476 12.4689 80.748C11.9889 81.012 11.4329 81.144 10.8009 81.144ZM10.8009 79.836C11.2729 79.836 11.6409 79.668 11.9049 79.332C12.1689 78.988 12.3009 78.5 12.3009 77.868C12.3009 77.228 12.1689 76.74 11.9049 76.404C11.6409 76.068 11.2729 75.9 10.8009 75.9C10.3289 75.9 9.96094 76.068 9.69694 76.404C9.43294 76.74 9.30094 77.228 9.30094 77.868C9.30094 78.5 9.43294 78.988 9.69694 79.332C9.96094 79.668 10.3289 79.836 10.8009 79.836ZM18.5967 77.124V78.396H15.4767V77.124H18.5967ZM22.2614 74.04V76.26H25.3694V77.58H22.2614V81H20.6774V72.648H26.1614V74.04H22.2614ZM28.3167 73.8C28.0447 73.8 27.8127 73.708 27.6207 73.524C27.4287 73.34 27.3327 73.1 27.3327 72.804C27.3327 72.508 27.4287 72.268 27.6207 72.084C27.8127 71.9 28.0447 71.808 28.3167 71.808C28.5887 71.808 28.8207 71.9 29.0127 72.084C29.2047 72.268 29.3007 72.508 29.3007 72.804C29.3007 73.1 29.2047 73.34 29.0127 73.524C28.8207 73.708 28.5887 73.8 28.3167 73.8ZM29.1087 74.736V81H27.5247V74.748L29.1087 74.736ZM38.0433 81.144C36.9313 81.144 36.0593 80.824 35.4273 80.184C34.7953 79.544 34.4793 78.664 34.4793 77.544V72.648H36.0633V77.508C36.0633 78.276 36.2353 78.844 36.5793 79.212C36.9233 79.572 37.4113 79.752 38.0433 79.752C38.6833 79.752 39.1713 79.568 39.5073 79.2C39.8513 78.824 40.0233 78.26 40.0233 77.508V72.648H41.6073V77.544C41.6073 78.664 41.2913 79.544 40.6593 80.184C40.0273 80.824 39.1553 81.144 38.0433 81.144ZM47.2266 74.592C47.8586 74.592 48.3666 74.78 48.7506 75.156C49.1426 75.524 49.3386 76.012 49.3386 76.62V81H47.7546V77.52C47.7546 76.976 47.6706 76.588 47.5026 76.356C47.3426 76.116 47.0746 75.996 46.6986 75.996C46.2826 75.996 45.8426 76.228 45.3786 76.692V81H43.7946V76.128L43.5306 74.736H44.9826L45.2106 75.54C45.5546 75.204 45.8866 74.964 46.2066 74.82C46.5266 74.668 46.8666 74.592 47.2266 74.592ZM52.0823 73.8C51.8103 73.8 51.5783 73.708 51.3863 73.524C51.1943 73.34 51.0983 73.1 51.0983 72.804C51.0983 72.508 51.1943 72.268 51.3863 72.084C51.5783 71.9 51.8103 71.808 52.0823 71.808C52.3543 71.808 52.5863 71.9 52.7783 72.084C52.9703 72.268 53.0663 72.508 53.0663 72.804C53.0663 73.1 52.9703 73.34 52.7783 73.524C52.5863 73.708 52.3543 73.8 52.0823 73.8ZM52.8743 74.736V81H51.2903V74.748L52.8743 74.736ZM60.4256 74.736L58.1096 81H56.1416L53.8256 74.736H55.4336L57.1496 79.68L58.8656 74.736H60.4256ZM66.8461 78.348H62.4901C62.5541 78.828 62.7301 79.196 63.0181 79.452C63.3141 79.708 63.7061 79.836 64.1941 79.836C64.5541 79.836 64.9421 79.772 65.3581 79.644C65.7821 79.508 66.1741 79.324 66.5341 79.092H66.5821V80.376C66.2621 80.624 65.8941 80.816 65.4781 80.952C65.0701 81.08 64.6381 81.144 64.1821 81.144C63.5261 81.144 62.9541 81.012 62.4661 80.748C61.9781 80.484 61.6021 80.104 61.3381 79.608C61.0741 79.112 60.9421 78.532 60.9421 77.868C60.9421 77.22 61.0661 76.648 61.3141 76.152C61.5701 75.656 61.9261 75.272 62.3821 75C62.8381 74.728 63.3661 74.592 63.9661 74.592C64.5501 74.592 65.0581 74.724 65.4901 74.988C65.9301 75.252 66.2661 75.632 66.4981 76.128C66.7301 76.624 66.8461 77.204 66.8461 77.868V78.348ZM63.9661 75.864C63.5901 75.864 63.2741 75.988 63.0181 76.236C62.7701 76.484 62.6021 76.828 62.5141 77.268H65.2141C65.1501 76.812 65.0141 76.464 64.8061 76.224C64.5981 75.984 64.3181 75.864 63.9661 75.864ZM71.8454 74.592V76.152H71.6414C71.0174 76.152 70.5094 76.324 70.1174 76.668V81H68.5334V76.128L68.2694 74.736H69.8534L70.0094 75.564C70.2734 75.204 70.5134 74.952 70.7294 74.808C70.9454 74.664 71.1854 74.592 71.4494 74.592H71.8454ZM75.3725 81.144C74.9565 81.144 74.5485 81.088 74.1485 80.976C73.7485 80.856 73.3725 80.688 73.0205 80.472V78.972C73.4045 79.26 73.7685 79.472 74.1125 79.608C74.4565 79.744 74.8285 79.812 75.2285 79.812C75.6365 79.812 75.9365 79.76 76.1285 79.656C76.3285 79.552 76.4285 79.392 76.4285 79.176C76.4285 78.968 76.3325 78.816 76.1405 78.72C75.9565 78.616 75.6605 78.516 75.2525 78.42C74.8045 78.308 74.4405 78.196 74.1605 78.084C73.8805 77.964 73.6365 77.772 73.4285 77.508C73.2285 77.244 73.1285 76.888 73.1285 76.44C73.1285 75.88 73.3565 75.432 73.8125 75.096C74.2765 74.76 74.8965 74.592 75.6725 74.592C76.0485 74.592 76.3965 74.636 76.7165 74.724C77.0365 74.804 77.3645 74.94 77.7005 75.132V76.596C77.3565 76.356 77.0365 76.184 76.7405 76.08C76.4445 75.976 76.1285 75.924 75.7925 75.924C75.4245 75.924 75.1405 75.972 74.9405 76.068C74.7405 76.156 74.6405 76.288 74.6405 76.464C74.6405 76.64 74.7245 76.772 74.8925 76.86C75.0685 76.94 75.3445 77.024 75.7205 77.112C76.1685 77.208 76.5405 77.32 76.8365 77.448C77.1405 77.568 77.4005 77.768 77.6165 78.048C77.8325 78.32 77.9405 78.7 77.9405 79.188C77.9405 79.564 77.8325 79.904 77.6165 80.208C77.4005 80.504 77.0965 80.736 76.7045 80.904C76.3125 81.064 75.8685 81.144 75.3725 81.144ZM85.0805 78.348H80.7245C80.7885 78.828 80.9645 79.196 81.2525 79.452C81.5485 79.708 81.9405 79.836 82.4285 79.836C82.7885 79.836 83.1765 79.772 83.5925 79.644C84.0165 79.508 84.4085 79.324 84.7685 79.092H84.8165V80.376C84.4965 80.624 84.1285 80.816 83.7125 80.952C83.3045 81.08 82.8725 81.144 82.4165 81.144C81.7605 81.144 81.1885 81.012 80.7005 80.748C80.2125 80.484 79.8365 80.104 79.5725 79.608C79.3085 79.112 79.1765 78.532 79.1765 77.868C79.1765 77.22 79.3005 76.648 79.5485 76.152C79.8045 75.656 80.1605 75.272 80.6165 75C81.0725 74.728 81.6005 74.592 82.2005 74.592C82.7845 74.592 83.2925 74.724 83.7245 74.988C84.1645 75.252 84.5005 75.632 84.7325 76.128C84.9645 76.624 85.0805 77.204 85.0805 77.868V78.348ZM82.2005 75.864C81.8245 75.864 81.5085 75.988 81.2525 76.236C81.0045 76.484 80.8365 76.828 80.7485 77.268H83.4485C83.3845 76.812 83.2485 76.464 83.0405 76.224C82.8325 75.984 82.5525 75.864 82.2005 75.864Z" fill="white"/>
<defs>
<linearGradient id="paint0_linear_730_1778" x1="52.0665" y1="36.814" x2="52.0665" y2="55.7967" gradientUnits="userSpaceOnUse">
<stop stop-color="#FFACB7"/>
<stop offset="0.276042" stop-color="#FF9EEC"/>
<stop offset="0.5625" stop-color="#B5C8FF"/>
<stop offset="0.78125" stop-color="#D6FFD3"/>
<stop offset="1" stop-color="#FFD58C"/>
</linearGradient>
<linearGradient id="paint1_linear_730_1778" x1="45.6351" y1="6.97766" x2="45.6351" y2="55.0152" gradientUnits="userSpaceOnUse">
<stop stop-color="#FFACB7"/>
<stop offset="0.276042" stop-color="#FF9EEC"/>
<stop offset="0.5625" stop-color="#B5C8FF"/>
<stop offset="0.78125" stop-color="#D6FFD3"/>
<stop offset="1" stop-color="#FFD58C"/>
</linearGradient>
<clipPath id="clip0_730_1778">
<rect width="82.9659" height="48.7969" fill="white" transform="translate(4.21875 7)"/>
</clipPath>
</defs>
</svg>
