<svg width="67" height="60" viewBox="0 0 67 60" fill="none" xmlns="http://www.w3.org/2000/svg">
<g clip-path="url(#clip0_733_1749)">
<path d="M23.0608 35.7444C25.294 36.861 27.8251 37.531 30.505 37.531C38.247 37.531 44.7235 32.0967 46.3612 24.8759C42.9369 26.9602 39.0659 28.9702 34.9715 30.9057C30.8772 32.8412 26.7829 34.4789 23.0608 35.7444Z" fill="url(#paint0_linear_733_1749)"/>
<path d="M57.6764 8.5731C57.3042 7.75424 56.4853 6.6376 54.8476 6.04206C54.0288 5.7443 53.061 5.59541 51.8699 5.52097C51.7955 5.52097 51.721 5.52097 51.6466 5.52097C49.9344 5.52097 47.7012 5.81874 45.1701 6.41428C43.5324 6.78649 41.7458 7.30758 39.9592 7.90312C39.8103 7.97756 38.5448 7.00981 38.3214 6.93537C37.7259 6.56316 37.0559 6.26539 36.3859 6.04206C35.1204 5.52097 33.7805 5.2232 32.3661 5.07432C29.4628 4.77655 26.4851 5.2232 23.8796 6.41428C18.4454 8.87087 14.7233 14.0818 14.2022 19.8883C12.5644 20.9305 11.0011 21.9727 9.66119 22.9404C7.42792 24.5782 5.71575 26.1415 4.59912 27.5559C3.85469 28.4492 3.40804 29.268 3.11027 30.1613C2.51473 31.8735 2.8125 33.139 3.18471 33.9579C3.55692 34.7768 4.37579 35.8934 6.01352 36.4889C6.83238 36.7867 7.80013 36.9356 8.99121 37.01C9.06565 37.01 9.14009 37.01 9.21453 37.01C10.9267 37.01 13.16 36.7123 15.691 36.1167C22.093 34.6279 28.3462 32.0968 34.376 29.268C40.1825 26.5137 45.9146 23.4615 51.1255 19.5905C53.3588 17.9528 55.0709 16.3895 56.1876 14.9751C56.932 14.0818 57.3786 13.263 57.6764 12.3697C58.3464 10.7319 58.0486 9.39196 57.6764 8.5731ZM21.1997 12.8907C21.4975 12.5185 22.093 12.5185 22.4652 12.8163C22.8375 13.1141 22.8375 13.7096 22.5397 14.0818C22.4652 14.2307 20.1575 17.0595 21.7953 22.6427C21.9442 23.0893 21.6464 23.6104 21.1997 23.7593C21.1253 23.7593 21.0508 23.7593 20.9764 23.7593C20.6042 23.7593 20.232 23.536 20.1575 23.1638C18.1476 16.5384 21.0508 13.0396 21.1997 12.8907ZM46.4356 18.325C45.9145 18.6972 45.4679 19.0695 45.0957 19.2928C41.5225 21.7494 37.8003 23.9082 33.9293 25.7693C30.8028 27.2581 27.5273 28.5981 24.2519 29.7891C21.0508 30.9058 17.7754 32.0224 14.351 32.0224C12.3411 32.0224 11.0756 31.5013 10.6289 30.5336C9.95896 29.0447 11.15 26.9603 14.351 24.2804C14.4999 25.0248 14.6488 25.7693 14.9466 26.5137V26.5881C15.3932 27.8536 15.9143 28.9703 16.6588 30.0869C19.4876 29.6402 24.2519 28.3003 31.9194 24.7271C38.0237 21.8983 42.788 19.0695 45.6912 16.6129C45.7657 16.5384 45.7657 16.5384 45.8401 16.464C45.6912 15.9429 45.5423 15.4962 45.319 15.0496V14.9751C44.7979 13.4118 43.979 12.0719 43.0113 10.9553C44.3513 10.7319 45.4679 10.583 46.5101 10.583C48.52 10.583 49.7855 11.1041 50.2322 12.0719C51.1999 14.2307 48.52 16.7617 46.4356 18.325Z" fill="url(#paint1_linear_733_1749)"/>
</g>
<path d="M0.699505 47.5955H1.59596V51.5345H3.58581V52.3223H0.699505V47.5955ZM7.50493 52.4038C7.14725 52.4038 6.83259 52.3291 6.56094 52.1796C6.28928 52.0257 6.07875 51.8084 5.92934 51.5277C5.78446 51.247 5.71202 50.921 5.71202 50.5497C5.71202 50.1785 5.78446 49.8525 5.92934 49.5718C6.07875 49.2911 6.28928 49.076 6.56094 48.9266C6.83259 48.7727 7.14725 48.6957 7.50493 48.6957C7.8626 48.6957 8.17727 48.7727 8.44892 48.9266C8.72057 49.076 8.92884 49.2911 9.07372 49.5718C9.22313 49.8525 9.29783 50.1785 9.29783 50.5497C9.29783 50.921 9.22313 51.247 9.07372 51.5277C8.92884 51.8084 8.72057 52.0257 8.44892 52.1796C8.17727 52.3291 7.8626 52.4038 7.50493 52.4038ZM7.50493 51.6635C7.77205 51.6635 7.98032 51.5684 8.12973 51.3783C8.27914 51.1836 8.35384 50.9074 8.35384 50.5497C8.35384 50.1875 8.27914 49.9114 8.12973 49.7212C7.98032 49.531 7.77205 49.436 7.50493 49.436C7.2378 49.436 7.02954 49.531 6.88013 49.7212C6.73072 49.9114 6.65601 50.1875 6.65601 50.5497C6.65601 50.9074 6.73072 51.1836 6.88013 51.3783C7.02954 51.5684 7.2378 51.6635 7.50493 51.6635ZM13.3091 50.1287V50.8486H11.5434V50.1287H13.3091ZM16.7753 48.3833V49.6397H18.5343V50.3867H16.7753V52.3223H15.8789V47.5955H18.9825V48.3833H16.7753ZM21.5945 48.2475C21.4406 48.2475 21.3093 48.1954 21.2006 48.0913C21.0919 47.9871 21.0376 47.8513 21.0376 47.6838C21.0376 47.5163 21.0919 47.3805 21.2006 47.2763C21.3093 47.1722 21.4406 47.1201 21.5945 47.1201C21.7484 47.1201 21.8797 47.1722 21.9884 47.2763C22.0971 47.3805 22.1514 47.5163 22.1514 47.6838C22.1514 47.8513 22.0971 47.9871 21.9884 48.0913C21.8797 48.1954 21.7484 48.2475 21.5945 48.2475ZM22.0427 48.7772V52.3223H21.1463V48.784L22.0427 48.7772ZM29.8836 52.4038C29.2543 52.4038 28.7608 52.2227 28.4031 51.8605C28.0454 51.4983 27.8666 51.0002 27.8666 50.3664V47.5955H28.7631V50.346C28.7631 50.7806 28.8604 51.1021 29.0551 51.3104C29.2498 51.5141 29.5259 51.616 29.8836 51.616C30.2458 51.616 30.522 51.5118 30.7122 51.3036C30.9068 51.0908 31.0042 50.7716 31.0042 50.346V47.5955H31.9006V50.3664C31.9006 51.0002 31.7218 51.4983 31.3641 51.8605C31.0064 52.2227 30.5129 52.4038 29.8836 52.4038ZM36.473 48.6957C36.8307 48.6957 37.1182 48.8021 37.3355 49.0149C37.5574 49.2232 37.6683 49.4993 37.6683 49.8434V52.3223H36.7719V50.3528C36.7719 50.0449 36.7243 49.8253 36.6292 49.694C36.5387 49.5582 36.387 49.4903 36.1742 49.4903C35.9388 49.4903 35.6898 49.6216 35.4272 49.8842V52.3223H34.5307V49.565L34.3813 48.7772H35.2031L35.3321 49.2322C35.5268 49.0421 35.7147 48.9062 35.8958 48.8247C36.0769 48.7387 36.2693 48.6957 36.473 48.6957ZM40.6134 48.2475C40.4594 48.2475 40.3281 48.1954 40.2195 48.0913C40.1108 47.9871 40.0565 47.8513 40.0565 47.6838C40.0565 47.5163 40.1108 47.3805 40.2195 47.2763C40.3281 47.1722 40.4594 47.1201 40.6134 47.1201C40.7673 47.1201 40.8986 47.1722 41.0073 47.2763C41.1159 47.3805 41.1702 47.5163 41.1702 47.6838C41.1702 47.8513 41.1159 47.9871 41.0073 48.0913C40.8986 48.1954 40.7673 48.2475 40.6134 48.2475ZM41.0616 48.7772V52.3223H40.1651V48.784L41.0616 48.7772ZM46.7274 48.7772L45.4167 52.3223H44.3029L42.9922 48.7772H43.9022L44.8734 51.5752L45.8445 48.7772H46.7274ZM51.7532 50.8214H49.288C49.3242 51.093 49.4238 51.3013 49.5868 51.4462C49.7543 51.5911 49.9762 51.6635 50.2523 51.6635C50.4561 51.6635 50.6757 51.6273 50.9111 51.5548C51.1511 51.4779 51.3729 51.3737 51.5767 51.2424H51.6038V51.9691C51.4227 52.1095 51.2144 52.2181 50.979 52.2951C50.7481 52.3675 50.5036 52.4038 50.2456 52.4038C49.8743 52.4038 49.5506 52.3291 49.2744 52.1796C48.9982 52.0302 48.7854 51.8152 48.636 51.5345C48.4866 51.2538 48.4119 50.9255 48.4119 50.5497C48.4119 50.183 48.4821 49.8593 48.6224 49.5786C48.7673 49.2979 48.9688 49.0805 49.2269 48.9266C49.4849 48.7727 49.7837 48.6957 50.1233 48.6957C50.4538 48.6957 50.7413 48.7704 50.9858 48.9198C51.2348 49.0692 51.425 49.2843 51.5563 49.565C51.6876 49.8457 51.7532 50.1739 51.7532 50.5497V50.8214ZM50.1233 49.4156C49.9105 49.4156 49.7317 49.4858 49.5868 49.6261C49.4464 49.7665 49.3514 49.9612 49.3016 50.2102H50.8296C50.7934 49.9521 50.7164 49.7552 50.5987 49.6193C50.481 49.4835 50.3225 49.4156 50.1233 49.4156ZM55.9748 48.6957V49.5786H55.8593C55.5062 49.5786 55.2187 49.6759 54.9968 49.8706V52.3223H54.1004V49.565L53.951 48.7772H54.8474L54.9357 49.2458C55.0851 49.0421 55.2209 48.8994 55.3432 48.8179C55.4654 48.7365 55.6012 48.6957 55.7507 48.6957H55.9748ZM59.3631 52.4038C59.1277 52.4038 58.8968 52.3721 58.6704 52.3087C58.444 52.2408 58.2312 52.1457 58.032 52.0234V51.1745C58.2493 51.3375 58.4553 51.4575 58.65 51.5345C58.8447 51.6114 59.0552 51.6499 59.2816 51.6499C59.5125 51.6499 59.6823 51.6205 59.791 51.5616C59.9041 51.5028 59.9607 51.4122 59.9607 51.29C59.9607 51.1723 59.9064 51.0862 59.7977 51.0319C59.6936 50.9731 59.5261 50.9165 59.2952 50.8621C59.0416 50.7987 58.8356 50.7354 58.6772 50.672C58.5187 50.6041 58.3806 50.4954 58.2629 50.346C58.1497 50.1966 58.0931 49.9951 58.0931 49.7416C58.0931 49.4246 58.2222 49.1711 58.4802 48.9809C58.7428 48.7908 59.0937 48.6957 59.5329 48.6957C59.7457 48.6957 59.9426 48.7206 60.1237 48.7704C60.3048 48.8157 60.4905 48.8927 60.6806 49.0013V49.8299C60.4859 49.694 60.3048 49.5967 60.1373 49.5378C59.9698 49.479 59.791 49.4495 59.6008 49.4495C59.3925 49.4495 59.2318 49.4767 59.1186 49.531C59.0054 49.5808 58.9488 49.6555 58.9488 49.7552C58.9488 49.8548 58.9964 49.9295 59.0914 49.9793C59.1911 50.0245 59.3473 50.0721 59.56 50.1219C59.8136 50.1762 60.0241 50.2396 60.1916 50.312C60.3637 50.38 60.5108 50.4931 60.6331 50.6516C60.7553 50.8055 60.8164 51.0206 60.8164 51.2968C60.8164 51.5096 60.7553 51.702 60.6331 51.874C60.5108 52.0416 60.3388 52.1729 60.1169 52.2679C59.8951 52.3585 59.6438 52.4038 59.3631 52.4038ZM66.2495 50.8214H63.7842C63.8205 51.093 63.9201 51.3013 64.0831 51.4462C64.2506 51.5911 64.4724 51.6635 64.7486 51.6635C64.9523 51.6635 65.1719 51.6273 65.4074 51.5548C65.6473 51.4779 65.8692 51.3737 66.0729 51.2424H66.1001V51.9691C65.919 52.1095 65.7107 52.2181 65.4753 52.2951C65.2444 52.3675 64.9999 52.4038 64.7418 52.4038C64.3706 52.4038 64.0468 52.3291 63.7707 52.1796C63.4945 52.0302 63.2817 51.8152 63.1323 51.5345C62.9829 51.2538 62.9082 50.9255 62.9082 50.5497C62.9082 50.183 62.9783 49.8593 63.1187 49.5786C63.2636 49.2979 63.4651 49.0805 63.7231 48.9266C63.9812 48.7727 64.28 48.6957 64.6196 48.6957C64.9501 48.6957 65.2376 48.7704 65.4821 48.9198C65.7311 49.0692 65.9212 49.2843 66.0525 49.565C66.1838 49.8457 66.2495 50.1739 66.2495 50.5497V50.8214ZM64.6196 49.4156C64.4068 49.4156 64.2279 49.4858 64.0831 49.6261C63.9427 49.7665 63.8476 49.9612 63.7978 50.2102H65.3259C65.2896 49.9521 65.2127 49.7552 65.095 49.6193C64.9772 49.4835 64.8188 49.4156 64.6196 49.4156Z" fill="url(#paint2_linear_733_1749)"/>
<path d="M0.699505 47.5955H1.59596V51.5345H3.58581V52.3223H0.699505V47.5955ZM7.50493 52.4038C7.14725 52.4038 6.83259 52.3291 6.56094 52.1796C6.28928 52.0257 6.07875 51.8084 5.92934 51.5277C5.78446 51.247 5.71202 50.921 5.71202 50.5497C5.71202 50.1785 5.78446 49.8525 5.92934 49.5718C6.07875 49.2911 6.28928 49.076 6.56094 48.9266C6.83259 48.7727 7.14725 48.6957 7.50493 48.6957C7.8626 48.6957 8.17727 48.7727 8.44892 48.9266C8.72057 49.076 8.92884 49.2911 9.07372 49.5718C9.22313 49.8525 9.29783 50.1785 9.29783 50.5497C9.29783 50.921 9.22313 51.247 9.07372 51.5277C8.92884 51.8084 8.72057 52.0257 8.44892 52.1796C8.17727 52.3291 7.8626 52.4038 7.50493 52.4038ZM7.50493 51.6635C7.77205 51.6635 7.98032 51.5684 8.12973 51.3783C8.27914 51.1836 8.35384 50.9074 8.35384 50.5497C8.35384 50.1875 8.27914 49.9114 8.12973 49.7212C7.98032 49.531 7.77205 49.436 7.50493 49.436C7.2378 49.436 7.02954 49.531 6.88013 49.7212C6.73072 49.9114 6.65601 50.1875 6.65601 50.5497C6.65601 50.9074 6.73072 51.1836 6.88013 51.3783C7.02954 51.5684 7.2378 51.6635 7.50493 51.6635ZM13.3091 50.1287V50.8486H11.5434V50.1287H13.3091ZM16.7753 48.3833V49.6397H18.5343V50.3867H16.7753V52.3223H15.8789V47.5955H18.9825V48.3833H16.7753ZM21.5945 48.2475C21.4406 48.2475 21.3093 48.1954 21.2006 48.0913C21.0919 47.9871 21.0376 47.8513 21.0376 47.6838C21.0376 47.5163 21.0919 47.3805 21.2006 47.2763C21.3093 47.1722 21.4406 47.1201 21.5945 47.1201C21.7484 47.1201 21.8797 47.1722 21.9884 47.2763C22.0971 47.3805 22.1514 47.5163 22.1514 47.6838C22.1514 47.8513 22.0971 47.9871 21.9884 48.0913C21.8797 48.1954 21.7484 48.2475 21.5945 48.2475ZM22.0427 48.7772V52.3223H21.1463V48.784L22.0427 48.7772ZM29.8836 52.4038C29.2543 52.4038 28.7608 52.2227 28.4031 51.8605C28.0454 51.4983 27.8666 51.0002 27.8666 50.3664V47.5955H28.7631V50.346C28.7631 50.7806 28.8604 51.1021 29.0551 51.3104C29.2498 51.5141 29.5259 51.616 29.8836 51.616C30.2458 51.616 30.522 51.5118 30.7122 51.3036C30.9068 51.0908 31.0042 50.7716 31.0042 50.346V47.5955H31.9006V50.3664C31.9006 51.0002 31.7218 51.4983 31.3641 51.8605C31.0064 52.2227 30.5129 52.4038 29.8836 52.4038ZM36.473 48.6957C36.8307 48.6957 37.1182 48.8021 37.3355 49.0149C37.5574 49.2232 37.6683 49.4993 37.6683 49.8434V52.3223H36.7719V50.3528C36.7719 50.0449 36.7243 49.8253 36.6292 49.694C36.5387 49.5582 36.387 49.4903 36.1742 49.4903C35.9388 49.4903 35.6898 49.6216 35.4272 49.8842V52.3223H34.5307V49.565L34.3813 48.7772H35.2031L35.3321 49.2322C35.5268 49.0421 35.7147 48.9062 35.8958 48.8247C36.0769 48.7387 36.2693 48.6957 36.473 48.6957ZM40.6134 48.2475C40.4594 48.2475 40.3281 48.1954 40.2195 48.0913C40.1108 47.9871 40.0565 47.8513 40.0565 47.6838C40.0565 47.5163 40.1108 47.3805 40.2195 47.2763C40.3281 47.1722 40.4594 47.1201 40.6134 47.1201C40.7673 47.1201 40.8986 47.1722 41.0073 47.2763C41.1159 47.3805 41.1702 47.5163 41.1702 47.6838C41.1702 47.8513 41.1159 47.9871 41.0073 48.0913C40.8986 48.1954 40.7673 48.2475 40.6134 48.2475ZM41.0616 48.7772V52.3223H40.1651V48.784L41.0616 48.7772ZM46.7274 48.7772L45.4167 52.3223H44.3029L42.9922 48.7772H43.9022L44.8734 51.5752L45.8445 48.7772H46.7274ZM51.7532 50.8214H49.288C49.3242 51.093 49.4238 51.3013 49.5868 51.4462C49.7543 51.5911 49.9762 51.6635 50.2523 51.6635C50.4561 51.6635 50.6757 51.6273 50.9111 51.5548C51.1511 51.4779 51.3729 51.3737 51.5767 51.2424H51.6038V51.9691C51.4227 52.1095 51.2144 52.2181 50.979 52.2951C50.7481 52.3675 50.5036 52.4038 50.2456 52.4038C49.8743 52.4038 49.5506 52.3291 49.2744 52.1796C48.9982 52.0302 48.7854 51.8152 48.636 51.5345C48.4866 51.2538 48.4119 50.9255 48.4119 50.5497C48.4119 50.183 48.4821 49.8593 48.6224 49.5786C48.7673 49.2979 48.9688 49.0805 49.2269 48.9266C49.4849 48.7727 49.7837 48.6957 50.1233 48.6957C50.4538 48.6957 50.7413 48.7704 50.9858 48.9198C51.2348 49.0692 51.425 49.2843 51.5563 49.565C51.6876 49.8457 51.7532 50.1739 51.7532 50.5497V50.8214ZM50.1233 49.4156C49.9105 49.4156 49.7317 49.4858 49.5868 49.6261C49.4464 49.7665 49.3514 49.9612 49.3016 50.2102H50.8296C50.7934 49.9521 50.7164 49.7552 50.5987 49.6193C50.481 49.4835 50.3225 49.4156 50.1233 49.4156ZM55.9748 48.6957V49.5786H55.8593C55.5062 49.5786 55.2187 49.6759 54.9968 49.8706V52.3223H54.1004V49.565L53.951 48.7772H54.8474L54.9357 49.2458C55.0851 49.0421 55.2209 48.8994 55.3432 48.8179C55.4654 48.7365 55.6012 48.6957 55.7507 48.6957H55.9748ZM59.3631 52.4038C59.1277 52.4038 58.8968 52.3721 58.6704 52.3087C58.444 52.2408 58.2312 52.1457 58.032 52.0234V51.1745C58.2493 51.3375 58.4553 51.4575 58.65 51.5345C58.8447 51.6114 59.0552 51.6499 59.2816 51.6499C59.5125 51.6499 59.6823 51.6205 59.791 51.5616C59.9041 51.5028 59.9607 51.4122 59.9607 51.29C59.9607 51.1723 59.9064 51.0862 59.7977 51.0319C59.6936 50.9731 59.5261 50.9165 59.2952 50.8621C59.0416 50.7987 58.8356 50.7354 58.6772 50.672C58.5187 50.6041 58.3806 50.4954 58.2629 50.346C58.1497 50.1966 58.0931 49.9951 58.0931 49.7416C58.0931 49.4246 58.2222 49.1711 58.4802 48.9809C58.7428 48.7908 59.0937 48.6957 59.5329 48.6957C59.7457 48.6957 59.9426 48.7206 60.1237 48.7704C60.3048 48.8157 60.4905 48.8927 60.6806 49.0013V49.8299C60.4859 49.694 60.3048 49.5967 60.1373 49.5378C59.9698 49.479 59.791 49.4495 59.6008 49.4495C59.3925 49.4495 59.2318 49.4767 59.1186 49.531C59.0054 49.5808 58.9488 49.6555 58.9488 49.7552C58.9488 49.8548 58.9964 49.9295 59.0914 49.9793C59.1911 50.0245 59.3473 50.0721 59.56 50.1219C59.8136 50.1762 60.0241 50.2396 60.1916 50.312C60.3637 50.38 60.5108 50.4931 60.6331 50.6516C60.7553 50.8055 60.8164 51.0206 60.8164 51.2968C60.8164 51.5096 60.7553 51.702 60.6331 51.874C60.5108 52.0416 60.3388 52.1729 60.1169 52.2679C59.8951 52.3585 59.6438 52.4038 59.3631 52.4038ZM66.2495 50.8214H63.7842C63.8205 51.093 63.9201 51.3013 64.0831 51.4462C64.2506 51.5911 64.4724 51.6635 64.7486 51.6635C64.9523 51.6635 65.1719 51.6273 65.4074 51.5548C65.6473 51.4779 65.8692 51.3737 66.0729 51.2424H66.1001V51.9691C65.919 52.1095 65.7107 52.2181 65.4753 52.2951C65.2444 52.3675 64.9999 52.4038 64.7418 52.4038C64.3706 52.4038 64.0468 52.3291 63.7707 52.1796C63.4945 52.0302 63.2817 51.8152 63.1323 51.5345C62.9829 51.2538 62.9082 50.9255 62.9082 50.5497C62.9082 50.183 62.9783 49.8593 63.1187 49.5786C63.2636 49.2979 63.4651 49.0805 63.7231 48.9266C63.9812 48.7727 64.28 48.6957 64.6196 48.6957C64.9501 48.6957 65.2376 48.7704 65.4821 48.9198C65.7311 49.0692 65.9212 49.2843 66.0525 49.565C66.1838 49.8457 66.2495 50.1739 66.2495 50.5497V50.8214ZM64.6196 49.4156C64.4068 49.4156 64.2279 49.4858 64.0831 49.6261C63.9427 49.7665 63.8476 49.9612 63.7978 50.2102H65.3259C65.2896 49.9521 65.2127 49.7552 65.095 49.6193C64.9772 49.4835 64.8188 49.4156 64.6196 49.4156Z" fill="white" fill-opacity="0.34"/>
<defs>
<linearGradient id="paint0_linear_733_1749" x1="34.711" y1="24.8759" x2="34.711" y2="37.531" gradientUnits="userSpaceOnUse">
<stop stop-color="#FFACB7"/>
<stop offset="0.276042" stop-color="#FF9EEC"/>
<stop offset="0.5625" stop-color="#B5C8FF"/>
<stop offset="0.78125" stop-color="#D6FFD3"/>
<stop offset="1" stop-color="#FFD58C"/>
</linearGradient>
<linearGradient id="paint1_linear_733_1749" x1="30.4234" y1="4.98499" x2="30.4234" y2="37.01" gradientUnits="userSpaceOnUse">
<stop stop-color="#FFACB7"/>
<stop offset="0.276042" stop-color="#FF9EEC"/>
<stop offset="0.5625" stop-color="#B5C8FF"/>
<stop offset="0.78125" stop-color="#D6FFD3"/>
<stop offset="1" stop-color="#FFD58C"/>
</linearGradient>
<linearGradient id="paint2_linear_733_1749" x1="67" y1="46.3223" x2="0.994656" y2="58.3336" gradientUnits="userSpaceOnUse">
<stop stop-color="#FFACB7"/>
<stop offset="0.276042" stop-color="#FF9EEC"/>
<stop offset="0.5625" stop-color="#B5C8FF"/>
<stop offset="0.78125" stop-color="#D6FFD3"/>
<stop offset="1" stop-color="#FFD58C"/>
</linearGradient>
<clipPath id="clip0_733_1749">
<rect width="55.3106" height="32.5312" fill="white" transform="translate(2.8125 5)"/>
</clipPath>
</defs>
</svg>
