<svg width="33" height="33" viewBox="0 0 33 33" fill="none" xmlns="http://www.w3.org/2000/svg">
<path d="M11 9.60168C10.6353 9.60168 10.2856 9.74655 10.0277 10.0044C9.76987 10.2623 9.625 10.612 9.625 10.9767C9.625 11.3414 9.76987 11.6911 10.0277 11.949C10.2856 12.2068 10.6353 12.3517 11 12.3517H22C22.3647 12.3517 22.7144 12.2068 22.9723 11.949C23.2301 11.6911 23.375 11.3414 23.375 10.9767C23.375 10.612 23.2301 10.2623 22.9723 10.0044C22.7144 9.74655 22.3647 9.60168 22 9.60168H11ZM9.625 16.5001C9.625 16.1354 9.76987 15.7857 10.0277 15.5278C10.2856 15.2699 10.6353 15.1251 11 15.1251H22C22.3647 15.1251 22.7144 15.2699 22.9723 15.5278C23.2301 15.7857 23.375 16.1354 23.375 16.5001C23.375 16.8647 23.2301 17.2145 22.9723 17.4723C22.7144 17.7302 22.3647 17.8751 22 17.8751H11C10.6353 17.8751 10.2856 17.7302 10.0277 17.4723C9.76987 17.2145 9.625 16.8647 9.625 16.5001ZM11 20.6484C10.6353 20.6484 10.2856 20.7933 10.0277 21.0512C9.76987 21.309 9.625 21.6588 9.625 22.0234C9.625 22.3881 9.76987 22.7378 10.0277 22.9957C10.2856 23.2536 10.6353 23.3984 11 23.3984H22C22.3647 23.3984 22.7144 23.2536 22.9723 22.9957C23.2301 22.7378 23.375 22.3881 23.375 22.0234C23.375 21.6588 23.2301 21.309 22.9723 21.0512C22.7144 20.7933 22.3647 20.6484 22 20.6484H11Z" fill="white"/>
<path fill-rule="evenodd" clip-rule="evenodd" d="M30.25 16.5C30.25 24.0941 24.0941 30.25 16.5 30.25C8.90588 30.25 2.75 24.0941 2.75 16.5C2.75 8.90588 8.90588 2.75 16.5 2.75C24.0941 2.75 30.25 8.90588 30.25 16.5ZM27.5 16.5C27.5 19.4174 26.3411 22.2153 24.2782 24.2782C22.2153 26.3411 19.4174 27.5 16.5 27.5C13.5826 27.5 10.7847 26.3411 8.72183 24.2782C6.65893 22.2153 5.5 19.4174 5.5 16.5C5.5 13.5826 6.65893 10.7847 8.72183 8.72183C10.7847 6.65893 13.5826 5.5 16.5 5.5C19.4174 5.5 22.2153 6.65893 24.2782 8.72183C26.3411 10.7847 27.5 13.5826 27.5 16.5Z" fill="white"/>
</svg>
